<?xml version="1.0" ?><svg data-name="Layer 1" id="Layer_1" viewBox="0 0 64 64" xmlns="http://www.w3.org/2000/svg"><title/><path d="M19,40h5.5A2.5,2.5,0,0,0,27,37.5h0A2.5,2.5,0,0,0,24.5,35h-3A2.5,2.5,0,0,1,19,32.5h0A2.5,2.5,0,0,1,21.5,30H27" style="fill:none;stroke:#000;stroke-linecap:square;stroke-linejoin:round;stroke-width:2px"/><line style="fill:none;stroke:#000;stroke-linecap:square;stroke-linejoin:round;stroke-width:2px" x1="23" x2="23" y1="30" y2="28"/><line style="fill:none;stroke:#000;stroke-linecap:square;stroke-linejoin:round;stroke-width:2px" x1="23" x2="23" y1="42" y2="40"/><path d="M24,48H47a2,2,0,0,0,0-4H32.367a12.941,12.941,0,0,1-8.7,3.966A1.939,1.939,0,0,0,24,48Z" style="fill:none;stroke:#000;stroke-linecap:round;stroke-linejoin:round;stroke-width:2px"/><path d="M52,38H35.638a12.923,12.923,0,0,1-1.7,4H52a2,2,0,0,0,0-4Z" style="fill:none;stroke:#000;stroke-linecap:round;stroke-linejoin:round;stroke-width:2px"/><path d="M35.949,36H49a2,2,0,0,0,0-4H35.638A13.015,13.015,0,0,1,36,35C36,35.338,35.975,35.669,35.949,36Z" style="fill:none;stroke:#000;stroke-linecap:round;stroke-linejoin:round;stroke-width:2px"/><path d="M43,31a2,2,0,0,0,0-4H33.233a12.957,12.957,0,0,1,2.133,4Z" style="fill:none;stroke:#000;stroke-linecap:round;stroke-linejoin:round;stroke-width:2px"/><path d="M31.3,25H46a2,2,0,0,0,0-4H23a1.994,1.994,0,0,0-1.8,1.139A12.765,12.765,0,0,1,31.3,25Z" style="fill:none;stroke:#000;stroke-linecap:round;stroke-linejoin:round;stroke-width:2px"/><path d="M26,20H49a2,2,0,0,0,0-4H26a2,2,0,0,0,0,4Z" style="fill:none;stroke:#000;stroke-linecap:round;stroke-linejoin:round;stroke-width:2px"/><circle cx="23" cy="35" r="13" style="fill:none;stroke:#000;stroke-linecap:round;stroke-linejoin:round;stroke-width:2px"/></svg>