<?xml version="1.0" ?><svg data-name="Layer 1" id="Layer_1" viewBox="0 0 64 64" xmlns="http://www.w3.org/2000/svg"><title/><path d="M48.211,34.5a5.82,5.82,0,0,1,4.943-5.771A.976.976,0,0,0,54,27.771V24.963A.974.974,0,0,0,53.014,24H10.986a.974.974,0,0,0-.986.963v2.808a.976.976,0,0,0,.846.958,5.84,5.84,0,0,1,0,11.542.976.976,0,0,0-.846.958v2.808a.978.978,0,0,0,.986.963H53.014A.978.978,0,0,0,54,44.037V41.229a.976.976,0,0,0-.846-.958A5.82,5.82,0,0,1,48.211,34.5Z" style="fill:none;stroke:#000;stroke-linecap:round;stroke-miterlimit:10;stroke-width:2px"/><line style="fill:none;stroke:#000;stroke-linecap:round;stroke-miterlimit:10;stroke-width:2px" x1="20" x2="20" y1="24" y2="27"/><line style="fill:none;stroke:#000;stroke-linecap:round;stroke-miterlimit:10;stroke-width:2px" x1="20" x2="20" y1="31" y2="33"/><line style="fill:none;stroke:#000;stroke-linecap:round;stroke-miterlimit:10;stroke-width:2px" x1="20" x2="20" y1="42" y2="45"/><circle cx="31.5" cy="31.5" r="1.5" style="fill:none;stroke:#000;stroke-linecap:round;stroke-miterlimit:10;stroke-width:2px"/><circle cx="37.5" cy="37.5" r="1.5" style="fill:none;stroke:#000;stroke-linecap:round;stroke-miterlimit:10;stroke-width:2px"/><line style="fill:none;stroke:#000;stroke-linecap:round;stroke-miterlimit:10;stroke-width:2px" x1="20" x2="20" y1="36" y2="38"/><line style="fill:none;stroke:#000;stroke-linecap:round;stroke-miterlimit:10;stroke-width:2px" x1="29" x2="40" y1="41" y2="28"/></svg>