<?xml version="1.0" encoding="utf-8"?>
<!-- Generator: Adobe Illustrator 24.2.3, SVG Export Plug-In . SVG Version: 6.00 Build 0)  -->
<svg version="1.1" id="Layer_1" focusable="false" xmlns="http://www.w3.org/2000/svg" xmlns:xlink="http://www.w3.org/1999/xlink"
	 x="0px" y="0px" viewBox="0 0 448 512" style="enable-background:new 0 0 448 512;" xml:space="preserve">
<style type="text/css">
	.st0{fill:#1D1D1B;}
</style>
<path class="st0" d="M16,122h416c8.8,0,16-5.2,16-11.6V81.6c0-6.4-7.2-11.6-16-11.6H16C7.2,70,0,75.2,0,81.6v28.9
	C0,116.8,7.2,122,16,122z M16,282h416c8.8,0,16-5.2,16-11.6v-28.9c0-6.4-7.2-11.6-16-11.6H16c-8.8,0-16,5.2-16,11.6v28.9
	C0,276.8,7.2,282,16,282z M16,442h416c8.8,0,16-5.2,16-11.6v-28.9c0-6.4-7.2-11.6-16-11.6H16c-8.8,0-16,5.2-16,11.6v28.9
	C0,436.8,7.2,442,16,442z"/>
</svg>
